mtllib materials.mtl
v -0.5347267 -0.2302736 0.2747599
v -0.5347267 -0.2302738 -0.6030741
v -0.5347267 -0.210274 -0.6030742
v -0.5347267 -0.2102737 0.2747599
v 0.105998 -0.2302736 0.2747599
v 0.105998 -0.2102737 0.2747599
v 0.1059981 -0.210274 -0.6030741
v 0.1059981 -0.2302738 -0.6030741
v -0.5347267 -0.3049046 0.2747599
v -0.5347266 -0.3049047 -0.6030742
v -0.5347266 -0.2849047 -0.6030742
v -0.5347267 -0.2849046 0.2747599
v 0.105998 -0.3049043 0.2747599
v 0.105998 -0.2849045 0.2747599
v 0.1059981 -0.2849046 -0.6030741
v 0.1059981 -0.3049045 -0.6030741
v -0.5117235 -0.2995352 0.2458427
v -0.5117235 -0.2995353 -0.5741571
v -0.5117235 -0.230274 -0.5741571
v -0.5117235 -0.2302737 0.2458427
v 0.08299479 -0.299535 0.2458428
v 0.08299479 -0.2302737 0.2458428
v 0.08299485 -0.2302738 -0.574157
v 0.08299485 -0.2995353 -0.574157
v -0.5347267 -0.297718 0.2747599
v -0.5347267 -0.2977184 -0.6030741
v -0.5347267 -0.2177186 -0.6030741
v -0.5347267 -0.2177181 0.2747599
v -0.504002 -0.297718 0.2747599
v -0.504002 -0.2177181 0.2747599
v -0.5040019 -0.2177186 -0.6030741
v -0.5040019 -0.2977184 -0.6030741
v -0.4889903 -0.1003749 0.105885
v -0.04250411 0.1652387 -0.6017112
v -0.04425005 0.1842289 -0.5956844
v -0.4907362 -0.08138478 0.1119117
v 0.05982418 -0.1534903 0.4322434
v 0.05807825 -0.1345001 0.4382701
v 0.5045644 0.1311135 -0.269326
v 0.5063103 0.1121234 -0.2753527
v -0.4485325 -0.1592968 0.07342145
v -0.03146213 0.0888176 -0.5875562
v -0.03750855 0.1545821 -0.5666851
v -0.4545789 -0.0935322 0.09429261
v 0.06087502 -0.2085983 0.3763461
v 0.05482861 -0.1428337 0.3972172
v 0.471899 0.1052806 -0.2637604
v 0.4779454 0.03951609 -0.2846316
v -0.482475 -0.1712378 0.08339572
v -0.0359889 0.09437597 -0.6242002
v -0.03773485 0.1133661 -0.6181735
v -0.484221 -0.1522477 0.08942243
v 0.06633928 -0.2243531 0.4097541
v 0.06459336 -0.2053629 0.4157809
v 0.5110795 0.06025088 -0.291815
v 0.5128254 0.04126072 -0.2978418
v -0.4831026 -0.1644142 0.08556154
v -0.03661641 0.1011994 -0.6220348
v -0.04360026 0.1771603 -0.5979277
v -0.4900864 -0.08845317 0.1096686
v -0.4567851 -0.1669612 0.1012114
v -0.463769 -0.09100032 0.1253185
v -0.01728287 0.1746132 -0.5822778
v -0.01029901 0.09865236 -0.6063849
v -0.2554049 0.01321518 -0.008956492
v 0.5274175 0.3802588 -0.1608141
v 0.5210457 0.3972919 -0.1524913
v -0.2617767 0.0302484 -0.0006336868
v -0.0495216 -0.1892457 0.5630137
v -0.05589337 -0.1722126 0.5713365
v 0.7269289 0.1948309 0.4194789
v 0.7333008 0.1777977 0.411156
v -0.2239366 0.02261031 0.008810312
v 0.5073112 0.3654721 -0.1330425
v 0.485245 0.424459 -0.1042199
v -0.2460028 0.08159745 0.03763291
v -0.03283653 -0.1653132 0.5397109
v -0.05490271 -0.1063262 0.5685334
v 0.6763451 0.2365354 0.4266805
v 0.6984113 0.1775483 0.397858
v -0.2791818 0.07677519 0.02210054
v 0.5036407 0.4438186 -0.1297571
v 0.4972689 0.4608517 -0.1214343
v -0.2855536 0.09380829 0.03042331
v -0.07329851 -0.125686 0.5940707
v -0.07967028 -0.1086529 0.6023934
v 0.7031522 0.2583904 0.4505358
v 0.7095239 0.2413573 0.442213
v -0.2576946 0.01933563 -0.005965889
v 0.525128 0.386379 -0.1578236
v 0.4996406 0.4545116 -0.1245323
v -0.283182 0.08746839 0.02732548
v -0.2478217 0.009626985 0.0214619
v -0.2733092 0.07775974 0.05475327
v 0.5095134 0.444803 -0.09710449
v 0.5350007 0.3766704 -0.1303958
vn -1 -1.039421E-06 -6.224843E-08
vn 1 4.956059E-07 6.22486E-08
vn 1.585832E-09 -1 2.976971E-07
vn 1.321257E-09 1 -2.709967E-07
vn -3.619003E-08 2.534432E-06 1
vn 5.433557E-08 -1.044307E-06 -1
vn -1 -1.387441E-06 -8.734217E-08
vn 1 8.436259E-07 8.734227E-08
vn 3.496059E-07 -1 1.734077E-07
vn -3.466988E-07 1 -1.467074E-07
vn -6.128448E-08 2.410143E-06 1
vn 7.94295E-08 -9.200174E-07 -1
vn -1 -2.309704E-07 -8.734237E-08
vn 1 6.30533E-08 8.734241E-08
vn 9.959282E-08 -1 2.185636E-07
vn -9.959281E-08 1 -2.185636E-07
vn -9.431951E-08 1.74956E-07 1
vn 8.654995E-08 -1.74956E-07 -1
vn -1 -1.250904E-07 -6.224869E-08
vn 1 -3.797563E-08 6.224877E-08
vn 1.585759E-09 -1 4.111822E-07
vn -1.585849E-09 1 -5.437896E-07
vn 1.315452E-06 1.015616E-07 1
vn 7.07895E-08 -2.87826E-07 -1
vn -0.8565524 0.08289798 -0.5093583
vn 0.8565525 -0.08289851 0.5093582
vn 0.08729839 -0.9495125 -0.3013386
vn -0.0872984 0.9495125 0.3013387
vn -0.5086227 -0.3025763 0.806071
vn 0.5086226 0.3025778 -0.8060706
vn -0.8565525 0.08289874 -0.5093581
vn 0.8565525 -0.08289891 0.509358
vn 0.08729851 -0.9495125 -0.3013387
vn -0.08729851 0.9495125 0.3013387
vn -0.5086225 -0.3025786 0.8060704
vn 0.5086225 0.3025786 -0.8060704
vn -0.8565524 0.08289764 -0.5093585
vn 0.8565524 -0.08289815 0.5093583
vn 0.08729875 -0.9495125 -0.3013385
vn -0.08729877 0.9495125 0.3013385
vn -0.5086228 -0.3025765 0.806071
vn 0.5086226 0.3025779 -0.8060706
vn -0.8565526 0.0828988 -0.509358
vn 0.8565526 -0.08289895 0.5093579
vn 0.08729833 -0.9495126 -0.3013386
vn -0.08729825 0.9495126 0.3013384
vn -0.5086212 -0.3025787 0.8060712
vn 0.5086224 0.3025784 -0.8060705
vn -0.3213284 0.3159866 -0.8926929
vn 0.3213286 -0.3159871 0.8926926
vn 0.3185931 -0.8516597 -0.4161421
vn -0.3185931 0.8516597 0.4161421
vn -0.8917665 -0.4181221 0.1729922
vn 0.8917661 0.4181234 -0.1729916
vn -0.3213288 0.3159876 -0.8926924
vn 0.3213288 -0.3159877 0.8926923
vn 0.318593 -0.8516596 -0.4161423
vn -0.318593 0.8516596 0.4161423
vn -0.8917659 -0.418124 0.1729913
vn 0.8917659 0.418124 -0.1729913
vn -0.3213284 0.3159869 -0.8926927
vn 0.3213286 -0.3159874 0.8926926
vn 0.3185929 -0.8516597 -0.4161424
vn -0.3185929 0.8516596 0.4161424
vn -0.8917667 -0.418122 0.1729922
vn 0.8917662 0.4181233 -0.1729916
vn -0.3213288 0.3159877 -0.8926924
vn 0.3213288 -0.3159879 0.8926923
vn 0.3185927 -0.8516597 -0.4161424
vn -0.3185926 0.8516597 0.4161424
vn -0.8917654 -0.4181245 0.1729925
vn 0.891766 0.4181239 -0.1729913
vt -0.1365359 0.07772213
vt -0.0651037 0.1287453
vt -0.06626617 0.1303727
vt -0.1376984 0.07934958
vt 0.1365359 0.07772215
vt 0.1376983 0.07934962
vt 0.06626606 0.1303727
vt 0.06510359 0.1287452
vt 0.04523551 -0.06936064
vt 0.06678542 -0.009020898
vt -0.01588389 0.02050385
vt -0.0374338 -0.03983589
vt -0.04523551 -0.06936064
vt 0.0374338 -0.03983589
vt 0.01588389 0.02050385
vt -0.06678541 -0.009020896
vt 0.1499575 0.01895924
vt 0.1517463 0.01985367
vt 0.1230922 0.07716181
vt 0.1213034 0.07626739
vt -0.1499577 0.01895926
vt -0.1213036 0.07626741
vt -0.1230924 0.07716183
vt -0.1517465 0.01985368
vt -0.1321981 0.07164914
vt -0.06076591 0.1226723
vt -0.06192838 0.1242998
vt -0.1333606 0.0732766
vt 0.1321981 0.07164916
vt 0.1333605 0.07327662
vt 0.06192828 0.1242997
vt 0.06076581 0.1226723
vt 0.04523551 -0.06936059
vt 0.06678542 -0.009020849
vt -0.01588389 0.0205039
vt -0.0374338 -0.03983583
vt -0.04523551 -0.06936058
vt 0.0374338 -0.03983583
vt 0.01588389 0.02050391
vt -0.06678541 -0.009020846
vt 0.1432823 0.01562164
vt 0.1450712 0.01651607
vt 0.1164171 0.07382422
vt 0.1146282 0.0729298
vt -0.1432825 0.01562166
vt -0.1146284 0.07292983
vt -0.1164172 0.07382425
vt -0.1450713 0.01651608
vt -0.130157 0.07376693
vt -0.06343092 0.1214285
vt -0.06745666 0.1270645
vt -0.1341828 0.07940297
vt 0.130157 0.07376696
vt 0.1341828 0.07940299
vt 0.06745663 0.1270645
vt 0.06343089 0.1214285
vt 0.04328594 -0.06622172
vt 0.06328848 -0.01021461
vt -0.01393433 0.01736497
vt -0.03393688 -0.03864215
vt -0.04328594 -0.06622172
vt 0.03393687 -0.03864215
vt 0.01393433 0.01736497
vt -0.06328848 -0.01021461
vt 0.142734 0.01791922
vt 0.1489289 0.02101668
vt 0.1223323 0.07420991
vt 0.1161374 0.07111244
vt -0.142734 0.01791922
vt -0.1161374 0.07111244
vt -0.1223323 0.07420991
vt -0.1489289 0.02101668
vt -0.1326157 0.07223403
vt -0.06118343 0.1232571
vt -0.06583333 0.1297669
vt -0.1372657 0.07874389
vt 0.1326157 0.07223405
vt 0.1372656 0.07874392
vt 0.0658333 0.1297669
vt 0.0611834 0.1232571
vt 0.04523554 -0.06936064
vt 0.04626892 -0.06646715
vt -0.03640039 -0.03694241
vt -0.03743378 -0.0398359
vt -0.04523556 -0.06936064
vt 0.03743375 -0.03983591
vt 0.03640037 -0.03694242
vt -0.04626894 -0.06646716
vt 0.1439253 0.0159429
vt 0.1510807 0.0195206
vt 0.1497066 0.02226871
vt 0.1425512 0.01869101
vt -0.1439252 0.015943
vt -0.1425512 0.01869111
vt -0.1497066 0.02226881
vt -0.1510806 0.0195207
vt -0.1640979 0.03217431
vt -0.1392406 0.1163648
vt -0.1411587 0.1169312
vt -0.166016 0.03274064
vt 0.1640978 0.03217436
vt 0.166016 0.03274069
vt 0.1411587 0.1169312
vt 0.1392405 0.1163649
vt -0.01371281 -0.02793344
vt 0.03956428 0.007659203
vt -0.009199915 0.08065223
vt -0.062477 0.04505959
vt 0.01371281 -0.02793343
vt 0.062477 0.0450596
vt 0.009199917 0.08065223
vt -0.03956427 0.007659211
vt 0.1631648 0.04267958
vt 0.1649941 0.04348804
vt 0.1390938 0.1020923
vt 0.1372645 0.1012839
vt -0.1631649 0.04267932
vt -0.1372648 0.1012836
vt -0.1390941 0.1020921
vt -0.1649942 0.04348778
vt -0.1566363 0.0329865
vt -0.1334167 0.1116303
vt -0.1400594 0.1135916
vt -0.163279 0.03494774
vt 0.1566363 0.0329865
vt 0.163279 0.03494776
vt 0.1400594 0.1135916
vt 0.1334167 0.1116303
vt -0.01340642 -0.02425108
vt 0.03604517 0.008785876
vt -0.009506304 0.07696991
vt -0.05895789 0.04393296
vt 0.01340642 -0.02425108
vt 0.05895789 0.04393296
vt 0.009506304 0.07696991
vt -0.03604517 0.008785877
vt 0.1559 0.04198335
vt 0.1622351 0.04478311
vt 0.1381947 0.09917945
vt 0.1318597 0.09637969
vt -0.1559 0.04198335
vt -0.1318597 0.09637968
vt -0.1381947 0.09917945
vt -0.1622351 0.04478311
vt -0.1569403 0.03006099
vt -0.132083 0.1142515
vt -0.1340012 0.1148178
vt -0.1588584 0.03062732
vt 0.1569402 0.03006103
vt 0.1588583 0.03062735
vt 0.1340011 0.1148179
vt 0.132083 0.1142515
vt -0.01371276 -0.02793338
vt 0.03956431 0.007659248
vt -0.009199871 0.08065225
vt -0.06247694 0.04505963
vt 0.01371277 -0.02793337
vt 0.06247695 0.04505964
vt 0.009199873 0.08065227
vt -0.03956431 0.007659257
vt 0.1563386 0.03966273
vt 0.1581679 0.04047119
vt 0.1322677 0.09907547
vt 0.1304384 0.098267
vt -0.1563388 0.03966249
vt -0.1304387 0.0982668
vt -0.132268 0.09907527
vt -0.1581681 0.04047094
vt -0.1576295 0.03026459
vt -0.1327721 0.1144551
vt -0.1404447 0.1167204
vt -0.165302 0.03252992
vt 0.1576294 0.03026461
vt 0.165302 0.03252994
vt 0.1404447 0.1167205
vt 0.1327721 0.1144551
vt -0.01371279 -0.02793346
vt -0.01115799 -0.02622668
vt -0.0599222 0.04676635
vt -0.062477 0.04505957
vt 0.01371277 -0.02793348
vt 0.06247698 0.04505954
vt 0.05992218 0.04676632
vt 0.01115796 -0.0262267
vt 0.1569961 0.03995266
vt 0.1643134 0.0431865
vt 0.1630714 0.04599676
vt 0.1557541 0.04276292
vt -0.1569961 0.03995283
vt -0.1557541 0.04276309
vt -0.1630713 0.04599693
vt -0.1643133 0.04318667
vt -0.1663257 0.03764394
vt -0.1694485 0.1253718
vt -0.1714472 0.1253006
vt -0.1683244 0.03757279
vt 0.1663257 0.03764393
vt 0.1683244 0.03757278
vt 0.1714472 0.1253006
vt 0.1694485 0.1253718
vt -0.02034973 0.04664615
vt 0.04315733 0.03815293
vt 0.0547936 0.1251617
vt -0.008713466 0.1336549
vt 0.02034973 0.04664616
vt 0.008713466 0.1336549
vt -0.0547936 0.1251617
vt -0.04315733 0.03815293
vt -0.1661125 -0.01694084
vt -0.1680452 -0.01745524
vt -0.1515657 -0.07937218
vt -0.149633 -0.07885778
vt 0.1661123 -0.01694258
vt 0.1496321 -0.07885935
vt 0.1515649 -0.07937378
vt 0.168045 -0.017457
vt -0.1669651 0.0405147
vt -0.1698823 0.1224628
vt -0.176804 0.1222164
vt -0.1738869 0.04026831
vt 0.1669651 0.04051469
vt 0.1738869 0.04026829
vt 0.176804 0.1222164
vt 0.1698822 0.1224628
vt -0.01768643 0.04920742
vt 0.04126059 0.04132404
vt 0.05213022 0.1226004
vt -0.006816801 0.1304838
vt 0.01768644 0.04920742
vt 0.006816798 0.1304838
vt -0.05213021 0.1226004
vt -0.04126059 0.04132404
vt -0.1660393 -0.01930445
vt -0.1727324 -0.02108597
vt -0.1574353 -0.07855679
vt -0.1507422 -0.07677528
vt 0.1660393 -0.01930445
vt 0.1507422 -0.07677528
vt 0.1574353 -0.07855679
vt 0.1727324 -0.02108596
vt -0.173784 0.03737842
vt -0.1769069 0.1251063
vt -0.1789056 0.1250351
vt -0.1757828 0.03730727
vt 0.173784 0.03737842
vt 0.1757827 0.03730727
vt 0.1789055 0.1250351
vt 0.1769068 0.1251062
vt -0.02034979 0.04664613
vt 0.04315728 0.0381529
vt 0.05479354 0.1251616
vt -0.00871352 0.1336549
vt 0.0203498 0.04664614
vt 0.008713525 0.1336549
vt -0.05479354 0.1251617
vt -0.04315727 0.0381529
vt -0.1733245 -0.01886019
vt -0.1752572 -0.01937458
vt -0.1587777 -0.08129155
vt -0.156845 -0.08077715
vt 0.1733243 -0.01886198
vt 0.1568442 -0.08077876
vt 0.1587769 -0.08129319
vt 0.175257 -0.01937639
vt -0.1670438 0.03761833
vt -0.1701667 0.1253462
vt -0.1781616 0.1250616
vt -0.1750388 0.03733373
vt 0.1670438 0.03761833
vt 0.1750388 0.03733373
vt 0.1781616 0.1250616
vt 0.1701667 0.1253462
vt -0.0203498 0.04664611
vt -0.01730444 0.04623884
vt -0.005668167 0.1332476
vt -0.008713532 0.1336549
vt 0.02034981 0.04664608
vt 0.008713545 0.1336548
vt 0.005668178 0.1332476
vt 0.01730445 0.04623881
vt -0.1668065 -0.01712878
vt -0.1745374 -0.01918653
vt -0.173747 -0.02215563
vt -0.1660162 -0.02009788
vt 0.1668066 -0.0171281
vt 0.1660163 -0.0200972
vt 0.1737472 -0.02215492
vt 0.1745375 -0.01918582
o group1127152862
g mesh1127152862
usemtl mat13
f 4/4/1 3/3/1 2/2/1 1/1/1
f 8/8/2 7/7/2 6/6/2 5/5/2
f 2/12/3 8/11/3 5/10/3 1/9/3
f 6/16/4 7/15/4 3/14/4 4/13/4
f 5/20/5 6/19/5 4/18/5 1/17/5
f 3/24/6 7/23/6 8/22/6 2/21/6
o group838650638
g mesh838650638
usemtl mat13
f 12/28/7 11/27/7 10/26/7 9/25/7
f 16/32/8 15/31/8 14/30/8 13/29/8
f 10/36/9 16/35/9 13/34/9 9/33/9
f 14/40/10 15/39/10 11/38/10 12/37/10
f 13/44/11 14/43/11 12/42/11 9/41/11
f 11/48/12 15/47/12 16/46/12 10/45/12
o group284506495
g mesh284506495
usemtl mat21
f 20/52/13 19/51/13 18/50/13 17/49/13
f 24/56/14 23/55/14 22/54/14 21/53/14
f 18/60/15 24/59/15 21/58/15 17/57/15
f 22/64/16 23/63/16 19/62/16 20/61/16
f 21/68/17 22/67/17 20/66/17 17/65/17
f 19/72/18 23/71/18 24/70/18 18/69/18
o group275674140
g mesh275674140
usemtl mat13
f 28/76/19 27/75/19 26/74/19 25/73/19
f 32/80/20 31/79/20 30/78/20 29/77/20
f 26/84/21 32/83/21 29/82/21 25/81/21
f 30/88/22 31/87/22 27/86/22 28/85/22
f 29/92/23 30/91/23 28/90/23 25/89/23
f 27/96/24 31/95/24 32/94/24 26/93/24
o group129582304
g mesh129582304
usemtl mat8
f 36/100/25 35/99/25 34/98/25 33/97/25
f 40/104/26 39/103/26 38/102/26 37/101/26
f 34/108/27 40/107/27 37/106/27 33/105/27
f 38/112/28 39/111/28 35/110/28 36/109/28
f 37/116/29 38/115/29 36/114/29 33/113/29
f 35/120/30 39/119/30 40/118/30 34/117/30
o group1055091286
g mesh1055091286
usemtl mat21
f 44/124/31 43/123/31 42/122/31 41/121/31
f 48/128/32 47/127/32 46/126/32 45/125/32
f 42/132/33 48/131/33 45/130/33 41/129/33
f 46/136/34 47/135/34 43/134/34 44/133/34
f 45/140/35 46/139/35 44/138/35 41/137/35
f 43/144/36 47/143/36 48/142/36 42/141/36
o group116203682
g mesh116203682
usemtl mat8
f 52/148/37 51/147/37 50/146/37 49/145/37
f 56/152/38 55/151/38 54/150/38 53/149/38
f 50/156/39 56/155/39 53/154/39 49/153/39
f 54/160/40 55/159/40 51/158/40 52/157/40
f 53/164/41 54/163/41 52/162/41 49/161/41
f 51/168/42 55/167/42 56/166/42 50/165/42
o group121576410
g mesh121576410
usemtl mat8
f 60/172/43 59/171/43 58/170/43 57/169/43
f 64/176/44 63/175/44 62/174/44 61/173/44
f 58/180/45 64/179/45 61/178/45 57/177/45
f 62/184/46 63/183/46 59/182/46 60/181/46
f 61/188/47 62/187/47 60/186/47 57/185/47
f 59/192/48 63/191/48 64/190/48 58/189/48
o group991560414
g mesh991560414
usemtl mat5
f 68/196/49 67/195/49 66/194/49 65/193/49
f 72/200/50 71/199/50 70/198/50 69/197/50
f 66/204/51 72/203/51 69/202/51 65/201/51
f 70/208/52 71/207/52 67/206/52 68/205/52
f 69/212/53 70/211/53 68/210/53 65/209/53
f 67/216/54 71/215/54 72/214/54 66/213/54
o group1603404761
g mesh1603404761
usemtl mat21
f 76/220/55 75/219/55 74/218/55 73/217/55
f 80/224/56 79/223/56 78/222/56 77/221/56
f 74/228/57 80/227/57 77/226/57 73/225/57
f 78/232/58 79/231/58 75/230/58 76/229/58
f 77/236/59 78/235/59 76/234/59 73/233/59
f 75/240/60 79/239/60 80/238/60 74/237/60
o group1361000378
g mesh1361000378
usemtl mat5
f 84/244/61 83/243/61 82/242/61 81/241/61
f 88/248/62 87/247/62 86/246/62 85/245/62
f 82/252/63 88/251/63 85/250/63 81/249/63
f 86/256/64 87/255/64 83/254/64 84/253/64
f 85/260/65 86/259/65 84/258/65 81/257/65
f 83/264/66 87/263/66 88/262/66 82/261/66
o group2087378488
g mesh2087378488
usemtl mat5
f 92/268/67 91/267/67 90/266/67 89/265/67
f 96/272/68 95/271/68 94/270/68 93/269/68
f 90/276/69 96/275/69 93/274/69 89/273/69
f 94/280/70 95/279/70 91/278/70 92/277/70
f 93/284/71 94/283/71 92/282/71 89/281/71
f 91/288/72 95/287/72 96/286/72 90/285/72
